<?xml version="1.0" encoding="utf-8"?>
<!-- Generator: Adobe Illustrator 24.1.1, SVG Export Plug-In . SVG Version: 6.00 Build 0)  -->
<svg version="1.1" id="Layer_1" xmlns="http://www.w3.org/2000/svg" xmlns:xlink="http://www.w3.org/1999/xlink" x="0px" y="0px"
	 viewBox="0 0 512 512" style="enable-background:new 0 0 512 512;" xml:space="preserve">
<g>
	<path d="M504.5,115.9l0.3,2.1v110c0,2.8-1.5,5.5-4,6.9l-92.3,53.2v105.3c0,2.8-1.5,5.5-4,6.9L211.8,511.2l-1.4,0.6l-0.5,0.3h-4.1
		l-0.6-0.3l-1.3-0.6L11.3,400.3c-2.5-1.4-4.1-4.1-4.1-6.9V63.5l0.3-2.1l0.3-0.7l0.5-1.2l0.5-0.7l0.8-1l0.8-0.6l0.9-0.7l96.3-55.4
		c2.5-1.4,5.6-1.4,8,0l96.4,55.4l0.8,0.7l0.8,0.6l0.7,1l0.6,0.7l0.5,1.2l0.3,0.7l0.3,2.1v206l80.2-46.2V118l0.3-2.1l0.3-0.7l0.5-1.3
		l0.6-0.8l0.7-0.9l0.8-0.6l0.8-0.7l96.4-55.4c2.4-1.5,5.5-1.5,8,0l96.3,55.4l0.9,0.7l0.8,0.6l0.8,0.9l0.5,0.8l0.5,1.3L504.5,115.9
		L504.5,115.9z M488.7,223.3v-91.4L455,151.2l-46.5,26.8v91.4L488.7,223.3z M392.5,388.7v-91.5l-45.9,26.1L215.9,398v92.3
		L392.5,388.7z M23.2,77.4v311.3l176.6,101.6V398l-92.3-52.3l-0.8-0.7l-0.8-0.6h-0.1l-0.7-0.8l-0.6-0.8l-0.4-1l-0.4-0.9l-0.2-1.2
		l-0.2-0.9V123.5L56.9,96.7L23.2,77.4z M111.5,17.3L31.3,63.4l80.2,46.2l80.2-46.2L111.5,17.3z M153.3,305.6l46.5-26.8V77.4
		l-33.7,19.3l-46.6,26.8v201.4L153.3,305.6z M400.5,71.8L320.2,118l80.3,46.2l80.2-46.2L400.5,71.8z M392.5,178.1l-80.3-46.2v91.4
		l46.5,26.8l33.8,19.3L392.5,178.1z M207.8,384.1l176.5-100.7l-80.1-46.2L127.8,338.8L207.8,384.1z"/>
</g>
</svg>
